<?xml version="1.0" encoding="UTF-8" standalone="no"?>
<!-- Created with Inkscape (http://www.inkscape.org/) -->

<svg
   xmlns:dc="http://purl.org/dc/elements/1.1/"
   xmlns:cc="http://creativecommons.org/ns#"
   xmlns:rdf="http://www.w3.org/1999/02/22-rdf-syntax-ns#"
   xmlns:svg="http://www.w3.org/2000/svg"
   xmlns="http://www.w3.org/2000/svg"
   xmlns:sodipodi="http://sodipodi.sourceforge.net/DTD/sodipodi-0.dtd"
   xmlns:inkscape="http://www.inkscape.org/namespaces/inkscape"
   width="210mm"
   height="297mm"
   viewBox="0 0 210 297"
   version="1.1"
   id="svg8"
   inkscape:version="0.92.2 (5c3e80d, 2017-08-06)"
   sodipodi:docname="dibujo.svg">
  <defs
     id="defs2" />
  <sodipodi:namedview
     id="base"
     pagecolor="#ffffff"
     bordercolor="#666666"
     borderopacity="1.0"
     inkscape:pageopacity="0.0"
     inkscape:pageshadow="2"
     inkscape:zoom="0.35"
     inkscape:cx="-64.285714"
     inkscape:cy="560"
     inkscape:document-units="mm"
     inkscape:current-layer="layer1"
     showgrid="false"
     inkscape:window-width="1366"
     inkscape:window-height="705"
     inkscape:window-x="-8"
     inkscape:window-y="-8"
     inkscape:window-maximized="1" />
  <metadata
     id="metadata5">
    <rdf:RDF>
      <cc:Work
         rdf:about="">
        <dc:format>image/svg+xml</dc:format>
        <dc:type
           rdf:resource="http://purl.org/dc/dcmitype/StillImage" />
        <dc:title></dc:title>
      </cc:Work>
    </rdf:RDF>
  </metadata>
  <g
     inkscape:label="Capa 1"
     inkscape:groupmode="layer"
     id="layer1">
    <text
       xml:space="preserve"
       style="font-style:normal;font-weight:normal;font-size:146.67053223px;line-height:1.25;font-family:sans-serif;letter-spacing:0px;word-spacing:0px;fill:#000000;fill-opacity:1;stroke:none;stroke-width:3.66676283"
       x="-9.3013229"
       y="154.96605"
       id="text3705"
       transform="scale(0.95844703,1.0433545)"><tspan
         sodipodi:role="line"
         id="tspan3703"
         x="-9.3013229"
         y="288.77802"
         style="stroke-width:3.66676283" /></text>
    <path
       style="fill:#ffaaaa;stroke-width:0.75595242"
       d="M 10.734523,104.97517 V 49.626534 l 20.221726,0.391197 c 23.072442,0.446344 27.821998,1.185452 37.917006,5.900502 12.06042,5.633029 21.9651,18.373598 25.510791,32.814979 1.96306,7.99541 1.77988,25.306628 -0.35025,33.100678 -3.905101,14.28857 -13.737411,27.04104 -25.09094,32.54283 -10.039411,4.865 -12.353975,5.22053 -36.474701,5.60272 l -21.733632,0.34437 z m 46.226436,40.92731 c 6.341803,-2.04469 13.542129,-6.81834 16.881911,-11.19232 5.516425,-7.22464 7.785205,-14.19819 8.440695,-25.94421 C 83.628015,84.674343 73.988423,69.24556 54.201784,63.819273 51.259313,63.012331 45.085494,62.417741 36.625891,62.12657 L 23.585713,61.677741 v 43.289829 43.28983 l 14.174108,-0.36706 c 11.734882,-0.3039 15.039208,-0.64599 19.201138,-1.98786 z"
       id="path3727"
       inkscape:connector-curvature="0" />
    <path
       style="fill:#ff8080;stroke-width:0.65107685"
       d="M 105.70673,99.138204 V 56.04892 h 8.50258 8.5026 l 0.9056,1.623228 c 0.49809,0.892772 6.23,11.583933 12.73756,23.758134 6.50757,12.174198 12.06222,22.331088 12.34371,22.570868 0.28145,0.23979 6.14384,-10.451375 13.02751,-23.758128 L 174.24204,56.04892 h 8.82163 8.82163 v 43.089284 43.089286 h -6.10432 -6.10431 v -37.18664 c 0,-20.452656 -0.24238,-37.185981 -0.53862,-37.185169 -0.29624,8.59e-4 -6.55463,11.356022 -13.90754,25.233792 l -13.36891,25.232317 -3.55695,0.1747 c -3.2876,0.16146 -3.6263,0.0497 -4.47305,-1.47566 -0.50387,-0.9077 -6.42532,-12.1423 -13.15879,-24.965798 -6.73345,-12.823486 -12.52006,-23.567769 -12.85913,-23.876182 -0.34389,-0.312806 -0.61647,15.934072 -0.61647,36.74395 v 37.30469 h -5.74525 -5.74523 z"
       id="path3729"
       inkscape:connector-curvature="0" />
    <path
       style="fill:#ffd5d5;stroke-width:0.69910198"
       d="M 19.352377,107.99331 V 59.031906 l 1.639016,0.02041 c 15.876708,0.197663 40.397754,1.484014 44.124192,2.314712 16.047368,3.577284 28.898691,15.207466 34.118121,30.876159 1.093264,3.281948 1.333704,6.194628 1.301554,15.766963 -0.037,11.01525 -0.16348,12.07331 -2.045334,17.10885 -6.469237,17.3108 -20.369461,28.54674 -37.671571,30.45097 -3.374846,0.37143 -14.085308,0.83494 -23.801031,1.03005 l -17.664947,0.35473 z m 35.491914,37.90917 c 3.512332,-0.19056 7.730332,-0.92033 10.19832,-1.76445 15.961884,-5.45937 23.535014,-17.14694 23.499986,-36.26734 C 88.519952,95.478809 85.636707,87.497952 78.683759,80.580906 71.967178,73.899011 63.706088,70.75417 51.196209,70.116919 47.10382,69.908446 41.051124,69.577697 37.745776,69.381906 l -6.009724,-0.355982 v 38.952176 38.95219 l 8.559305,-0.35143 c 4.707616,-0.19329 11.254637,-0.49766 14.548934,-0.67638 z"
       id="path3733"
       inkscape:connector-curvature="0" />
  </g>
</svg>
